<?xml version="1.0" encoding="UTF-8"?>
<svg version="1.1" xmlns="http://www.w3.org/2000/svg" width="142" height="137">
<path d="M0 0 C46.86 0 93.72 0 142 0 C142 45.21 142 90.42 142 137 C95.14 137 48.28 137 0 137 C0 91.79 0 46.58 0 0 Z " fill="#7FA4F4" transform="translate(0,0)"/>
<path d="M0 0 C5.99745038 3.57782891 10.31178129 8.41984565 12.54296875 15.09375 C13.2483063 21.38682662 13.0745206 26.64927423 9.54296875 32.09375 C8.22296875 32.09375 6.90296875 32.09375 5.54296875 32.09375 C5.21296875 33.08375 4.88296875 34.07375 4.54296875 35.09375 C3.55296875 34.59875 3.55296875 34.59875 2.54296875 34.09375 C3.03796875 33.10375 3.03796875 33.10375 3.54296875 32.09375 C2.55296875 31.76375 1.56296875 31.43375 0.54296875 31.09375 C0.87296875 29.77375 1.20296875 28.45375 1.54296875 27.09375 C3.19296875 26.76375 4.84296875 26.43375 6.54296875 26.09375 C4.46256301 18.21010721 0.82565618 11.4581985 -5.45703125 6.09375 C-9.27788598 5.59845402 -11.60139369 5.63462741 -15.01953125 7.46875 C-19.70253033 12.51197977 -23.42344454 18.21547656 -24.45703125 25.09375 C-24.12703125 25.09375 -23.79703125 25.09375 -23.45703125 25.09375 C-22.79703125 24.43375 -22.13703125 23.77375 -21.45703125 23.09375 C-17.45217772 21.75879882 -13.77500543 21.90958305 -9.58203125 21.90625 C-8.77894531 21.89400391 -7.97585937 21.88175781 -7.1484375 21.86914062 C-2.79477476 21.85838199 0.57795865 22.06308693 4.54296875 24.09375 C4.21296875 24.75375 3.88296875 25.41375 3.54296875 26.09375 C0.90296875 26.09375 -1.73703125 26.09375 -4.45703125 26.09375 C-4.78703125 27.41375 -5.11703125 28.73375 -5.45703125 30.09375 C-5.45703125 28.44375 -5.45703125 26.79375 -5.45703125 25.09375 C-7.76703125 25.09375 -10.07703125 25.09375 -12.45703125 25.09375 C-12.78703125 26.41375 -13.11703125 27.73375 -13.45703125 29.09375 C-14.19953125 29.01125 -14.94203125 28.92875 -15.70703125 28.84375 C-19.23860152 29.16480184 -20.22333489 30.44640617 -22.45703125 33.09375 C-22.45703125 32.10375 -22.45703125 31.11375 -22.45703125 30.09375 C-24.93203125 31.57875 -24.93203125 31.57875 -27.45703125 33.09375 C-31.44908511 27.27200479 -31.31830777 20.94294898 -30.45703125 14.09375 C-28.24621192 7.3826851 -24.43319893 3.6351827 -18.45703125 0.09375 C-12.72259712 -1.81772804 -5.71513517 -2.10796718 0 0 Z " fill="#769AE6" transform="translate(79.45703125,38.90625)"/>
<path d="M0 0 C5.4885291 3.79613469 9.62588532 9.80760872 12 16 C12.12890625 18.7734375 12.12890625 18.7734375 12 21 C9.04335481 22.4783226 6.25770263 22.06032783 3 22 C3 21.67 3 21.34 3 21 C4.98 20.67 6.96 20.34 9 20 C6.14639988 18.38563184 4.08557787 17.74480831 0.8125 17.734375 C0.03132813 17.73179688 -0.74984375 17.72921875 -1.5546875 17.7265625 C-2.36164063 17.73429687 -3.16859375 17.74203125 -4 17.75 C-4.80695313 17.74226563 -5.61390625 17.73453125 -6.4453125 17.7265625 C-7.61707031 17.73042969 -7.61707031 17.73042969 -8.8125 17.734375 C-9.87404297 17.73775879 -9.87404297 17.73775879 -10.95703125 17.74121094 C-13.3098713 18.03925234 -14.94773951 18.83897398 -17 20 C-14.69 20.33 -12.38 20.66 -10 21 C-10 21.33 -10 21.66 -10 22 C-16.0546875 22.1953125 -16.0546875 22.1953125 -18 22 C-18.66 21.34 -19.32 20.68 -20 20 C-19.39324841 13.22269922 -14.9515956 6.47495554 -10.0625 1.875 C-6.19872075 -0.49057913 -4.45028934 -0.93690302 0 0 Z " fill="#FAFBFC" transform="translate(74,44)"/>
<path d="M0 0 C4.30047939 2.92169974 6.38003613 7.16190163 8 12 C8.70533755 18.29307662 8.53155185 23.55552423 5 29 C3.68 29 2.36 29 1 29 C0.67 29.99 0.34 30.98 0 32 C-0.66 31.67 -1.32 31.34 -2 31 C-1.67 30.34 -1.34 29.68 -1 29 C-1.99 28.67 -2.98 28.34 -4 28 C-3.67 26.68 -3.34 25.36 -3 24 C-1.35 23.67 0.3 23.34 2 23 C-0.09363986 15.06620685 -3.7450153 8.44684715 -10 3 C-13.10839021 2.2730774 -13.10839021 2.2730774 -16 2 C-10.99859926 -0.95537317 -5.62726195 -0.99304623 0 0 Z " fill="#799FED" transform="translate(84,42)"/>
<path d="M0 0 C2.31 0 4.62 0 7 0 C9.49242424 13.35227273 9.49242424 13.35227273 9 20 C7 22 7 22 3.5 22.25 C0 22 0 22 -2 20 C-2.50542312 13.17678789 -1.24969555 6.69479757 0 0 Z " fill="#FBFCFC" transform="translate(67,64)"/>
<path d="M0 0 C6.58560721 3.75717334 10.24688702 8.56253796 12.5625 15.875 C13.31414855 22.25886443 12.7195587 27.2624512 9.5625 32.875 C8.5725 33.535 7.5825 34.195 6.5625 34.875 C6.871875 34.111875 7.18125 33.34875 7.5 32.5625 C9.95248628 26.35915234 10.79683639 20.07174371 8.87890625 13.55078125 C6.12905501 7.56044141 1.71459144 3.37736046 -4.4375 0.875 C-11.66951108 -0.04473367 -18.35763685 0.11513191 -24.55859375 4.21484375 C-29.02493008 8.16119082 -31.11007082 12.22059841 -31.83984375 18.13671875 C-32.01413763 24.25094821 -31.66813255 28.67789546 -28.4375 33.875 C-28.7675 34.535 -29.0975 35.195 -29.4375 35.875 C-34.37690533 28.70489548 -35.19377165 23.48992059 -34.4375 14.875 C-32.68173579 8.23217235 -27.98187307 3.69514532 -22.4375 -0.125 C-15.25165951 -3.62429366 -7.19156111 -3.34816692 0 0 Z " fill="#EEF2F8" transform="translate(81.4375,38.125)"/>
<path d="M0 0 C0.99 0.33 1.98 0.66 3 1 C3 3.31 3 5.62 3 8 C3.66 8 4.32 8 5 8 C5 5.69 5 3.38 5 1 C5.99 0.67 6.98 0.34 8 0 C8 2.64 8 5.28 8 8 C8.99 8 9.98 8 11 8 C11 8.66 11 9.32 11 10 C10.40574219 9.98839844 9.81148437 9.97679688 9.19921875 9.96484375 C1.71539035 9.88337128 -5.60698257 10.47984864 -13.03515625 11.359375 C-14.01355469 11.46765625 -14.99195313 11.5759375 -16 11.6875 C-17.3303125 11.84798828 -17.3303125 11.84798828 -18.6875 12.01171875 C-21 12 -21 12 -24 10 C-23.67 8.68 -23.34 7.36 -23 6 C-22.21625 6.185625 -21.4325 6.37125 -20.625 6.5625 C-18.02910225 7.25962266 -18.02910225 7.25962266 -16 6 C-15.34444881 3.47266765 -15.34444881 3.47266765 -15 1 C-13 4.75 -13 4.75 -13 7 C-10.16848027 7.41809201 -10.16848027 7.41809201 -7 7 C-4.59593616 4.62157423 -4.59593616 4.62157423 -3 2 C-3 3.98 -3 5.96 -3 8 C-2.34 8 -1.68 8 -1 8 C-1.0309375 6.2984375 -1.0309375 6.2984375 -1.0625 4.5625 C-1 1 -1 1 0 0 Z " fill="#7192D7" transform="translate(70,95)"/>
<path d="M0 0 C0.33 0 0.66 0 1 0 C1 2.97 1 5.94 1 9 C1.99 9 2.98 9 4 9 C4 6.69 4 4.38 4 2 C4.99 2 5.98 2 7 2 C7.98678714 5.13977726 8.11691083 6.67118829 7 9.8125 C5 12 5 12 1.5 12.3125 C-0.2325 12.1578125 -0.2325 12.1578125 -2 12 C-4.93593133 12 -7.76556416 12.22499427 -10.6875 12.5 C-11.68136719 12.5928125 -12.67523438 12.685625 -13.69921875 12.78125 C-14.83810547 12.88953125 -14.83810547 12.88953125 -16 13 C-16.66 11.35 -17.32 9.7 -18 8 C-16.6078125 8.061875 -16.6078125 8.061875 -15.1875 8.125 C-11.84190281 8.27136339 -11.84190281 8.27136339 -9 6 C-9 6.99 -9 7.98 -9 9 C-8.01 9 -7.02 9 -6 9 C-6 6.69 -6 4.38 -6 2 C-4.68 2 -3.36 2 -2 2 C-2 4.31 -2 6.62 -2 9 C-1.34 9 -0.68 9 0 9 C0 6.03 0 3.06 0 0 Z " fill="#799BE3" transform="translate(38,94)"/>
<path d="M0 0 C2.44897847 3.67346771 2.31537716 5.66356399 2 10 C0 12 0 12 -2.94140625 12.16015625 C-4.13636719 12.12792969 -5.33132812 12.09570312 -6.5625 12.0625 C-12.16375613 11.97597184 -17.45606936 12.23531991 -23 13 C-23 12.34 -23 11.68 -23 11 C-22.01 11 -21.02 11 -20 11 C-19.67 9.68 -19.34 8.36 -19 7 C-17.35 7 -15.7 7 -14 7 C-13.67 5.02 -13.34 3.04 -13 1 C-12.67 1 -12.34 1 -12 1 C-12 3.31 -12 5.62 -12 8 C-11.01 8 -10.02 8 -9 8 C-8.67 7.34 -8.34 6.68 -8 6 C-4 7 -4 7 0 8 C0 5.36 0 2.72 0 0 Z " fill="#6E91DC" transform="translate(122,95)"/>
<path d="M0 0 C0.98484375 0.01804688 1.9696875 0.03609375 2.984375 0.0546875 C4.10585937 0.08949219 4.10585937 0.08949219 5.25 0.125 C5.683125 1.053125 6.11625 1.98125 6.5625 2.9375 C7.97038627 5.59684073 9.01123556 7.20605905 11.25 9.125 C10.92 10.115 10.59 11.105 10.25 12.125 C7.5 12.40234375 7.5 12.40234375 4.25 12.125 C2.125 10.19140625 2.125 10.19140625 0.25 7.6875 C-2.78386133 3.88392922 -2.78386133 3.88392922 -7.25 2.0625 C-8.075 2.083125 -8.9 2.10375 -9.75 2.125 C-6.40060119 0.09941119 -3.88037449 -0.09238987 0 0 Z " fill="#80A4EF" transform="translate(77.75,41.875)"/>
<path d="M0 0 C6.36 -0.36 6.36 -0.36 9 1.125 C10.49672661 3.93136238 9.73294398 6.00159282 9 9 C7.35 9.33 5.7 9.66 4 10 C3.67 10.99 3.34 11.98 3 13 C2.01 13 1.02 13 0 13 C0 8.71 0 4.42 0 0 Z " fill="#E7ECF3" transform="translate(99,93)"/>
<path d="M0 0 C2.4375 0.8125 2.4375 0.8125 4.4375 2.8125 C4.10778521 6.10964793 3.8148161 7.4351839 1.4375 9.8125 C-1.6875 9.4375 -1.6875 9.4375 -4.5625 8.8125 C-5.89091008 3.37809513 -5.89091008 3.37809513 -4.4375 0.875 C-2.5625 -0.1875 -2.5625 -0.1875 0 0 Z " fill="#EAEFF4" transform="translate(61.5625,93.1875)"/>
<path d="M0 0 C2.5 0.25 2.5 0.25 4.5 2.25 C4.8125 5.25 4.8125 5.25 4.5 8.25 C1.5 10.25 1.5 10.25 -1.125 9.9375 C-3.5 9.25 -3.5 9.25 -4.5 8.25 C-4.6875 5.3125 -4.6875 5.3125 -4.5 2.25 C-2.5 0.25 -2.5 0.25 0 0 Z " fill="#F7F9FA" transform="translate(50.5,92.75)"/>
<path d="M0 0 C2.5 0.25 2.5 0.25 4.5 2.25 C4.8125 5.25 4.8125 5.25 4.5 8.25 C1.5 10.25 1.5 10.25 -1.125 9.9375 C-3.5 9.25 -3.5 9.25 -4.5 8.25 C-4.6875 5.3125 -4.6875 5.3125 -4.5 2.25 C-2.5 0.25 -2.5 0.25 0 0 Z " fill="#F8F9FA" transform="translate(93.5,92.75)"/>
<path d="M0 0 C0.99 0 1.98 0 3 0 C3 2.97 3 5.94 3 9 C5.3015411 9.77802187 5.3015411 9.77802187 8 10 C10.30504044 8.66846734 10.30504044 8.66846734 12 7 C12 9.31 12 11.62 12 14 C9.87506859 14.02693575 7.75004088 14.04636628 5.625 14.0625 C4.44164063 14.07410156 3.25828125 14.08570312 2.0390625 14.09765625 C-1 14 -1 14 -3 13 C-3 12.34 -3 11.68 -3 11 C-2.01 11 -1.02 11 0 11 C0 7.37 0 3.74 0 0 Z " fill="#7192D9" transform="translate(87,92)"/>
<path d="M0 0 C9.66666667 0 9.66666667 0 13 1 C14 2 14 2 14.0625 5.5625 C14.041875 6.696875 14.02125 7.83125 14 9 C13.34 9 12.68 9 12 9 C11.67 7.02 11.34 5.04 11 3 C10.34 3 9.68 3 9 3 C8.67 5.31 8.34 7.62 8 10 C7.34 10 6.68 10 6 10 C5.67 7.69 5.34 5.38 5 3 C4.34 3 3.68 3 3 3 C2.67 5.31 2.34 7.62 2 10 C1.34 10 0.68 10 0 10 C0 6.7 0 3.4 0 0 Z " fill="#F8FAFA" transform="translate(67,93)"/>
<path d="M0 0 C0.94875 0.04125 1.8975 0.0825 2.875 0.125 C3.205 1.115 3.535 2.105 3.875 3.125 C0.905 2.63 0.905 2.63 -2.125 2.125 C-0.74808038 4.87883923 1.24220042 5.63983101 3.875 7.125 C3 12 3 12 1.875 13.125 C0.20882885 13.16563832 -1.45888095 13.167721 -3.125 13.125 C-3.785 11.805 -4.445 10.485 -5.125 9.125 C-2.155 9.62 -2.155 9.62 0.875 10.125 C1.205 9.465 1.535 8.805 1.875 8.125 C0.905625 7.8775 -0.06375 7.63 -1.0625 7.375 C-4.125 6.125 -4.125 6.125 -5.125 4.125 C-5.125 0.41389311 -3.38352144 0.13534086 0 0 Z " fill="#F3F6F8" transform="translate(24.125,89.875)"/>
<path d="M0 0 C0.7940625 -0.00773437 1.588125 -0.01546875 2.40625 -0.0234375 C6.71873638 -0.00906255 10.07128619 0.25395992 14 2.25 C13.67 2.91 13.34 3.57 13 4.25 C11.33388095 4.292721 9.66617115 4.29063832 8 4.25 C7.67 3.92 7.34 3.59 7 3.25 C0.28393666 2.91906355 -6.38354345 3.01903134 -13 4.25 C-13.33 3.59 -13.66 2.93 -14 2.25 C-9.3403073 -0.11742452 -5.09929446 -0.04966845 0 0 Z " fill="#5575B6" transform="translate(70,60.75)"/>
<path d="M0 0 C0.99 0 1.98 0 3 0 C3 3.3 3 6.6 3 10 C3.66 10 4.32 10 5 10 C5 6.7 5 3.4 5 0 C5.33 0 5.66 0 6 0 C6 3.63 6 7.26 6 11 C0.375 12.125 0.375 12.125 -3 11 C-3 8.69 -3 6.38 -3 4 C-2.67 4 -2.34 4 -2 4 C-2 5.98 -2 7.96 -2 10 C-1.34 10 -0.68 10 0 10 C-0.08378906 9.36191406 -0.16757813 8.72382812 -0.25390625 8.06640625 C-0.35574219 7.24011719 -0.45757812 6.41382812 -0.5625 5.5625 C-0.66691406 4.73878906 -0.77132812 3.91507812 -0.87890625 3.06640625 C-0.91886719 2.38449219 -0.95882812 1.70257813 -1 1 C-0.67 0.67 -0.34 0.34 0 0 Z " fill="#87A3DE" transform="translate(81,92)"/>
<path d="M0 0 C1.77503906 0.03480469 1.77503906 0.03480469 3.5859375 0.0703125 C5.36871094 0.09738281 5.36871094 0.09738281 7.1875 0.125 C8.10273437 0.14820313 9.01796875 0.17140625 9.9609375 0.1953125 C10.2909375 0.8553125 10.6209375 1.5153125 10.9609375 2.1953125 C9.9709375 2.1953125 8.9809375 2.1953125 7.9609375 2.1953125 C7.6309375 3.5153125 7.3009375 4.8353125 6.9609375 6.1953125 C6.9609375 4.5453125 6.9609375 2.8953125 6.9609375 1.1953125 C4.6509375 1.1953125 2.3409375 1.1953125 -0.0390625 1.1953125 C-0.3690625 2.5153125 -0.6990625 3.8353125 -1.0390625 5.1953125 C-1.7815625 5.1128125 -2.5240625 5.0303125 -3.2890625 4.9453125 C-6.82063277 5.26636434 -7.80536614 6.54796867 -10.0390625 9.1953125 C-10.3690625 7.5453125 -10.6990625 5.8953125 -11.0390625 4.1953125 C-11.6990625 4.1953125 -12.3590625 4.1953125 -13.0390625 4.1953125 C-13.0390625 3.5353125 -13.0390625 2.8753125 -13.0390625 2.1953125 C-11.7603125 2.2365625 -10.4815625 2.2778125 -9.1640625 2.3203125 C-7.02034758 2.43744123 -7.02034758 2.43744123 -5.0390625 2.1953125 C-3.0390625 0.1953125 -3.0390625 0.1953125 0 0 Z " fill="#7698DE" transform="translate(67.0390625,62.8046875)"/>
<path d="M0 0 C0.33 0 0.66 0 1 0 C1.125 2.875 1.125 2.875 1 6 C-1 8 -1 8 -4.9375 8.375 C-7.98228347 8.30303239 -8.69922264 8.2643195 -11.0625 6.1875 C-12 4 -12 4 -11 1 C-10.34 1.66 -9.68 2.32 -9 3 C-5.5 3.41666667 -5.5 3.41666667 -2 3 C-1.34 2.01 -0.68 1.02 0 0 Z " fill="#7193DB" transform="translate(76,82)"/>
<path d="M0 0 C0.66 0 1.32 0 2 0 C2.33 0.99 2.66 1.98 3 3 C4.98045559 3.66179847 4.98045559 3.66179847 7 4 C8 5 8 5 8.09765625 6.84765625 C8.04882812 9.92382812 8.04882812 9.92382812 8 13 C7.34 13 6.68 13 6 13 C5.67 10.69 5.34 8.38 5 6 C4.34 6 3.68 6 3 6 C2.67 8.31 2.34 10.62 2 13 C1.34 13 0.68 13 0 13 C0 8.71 0 4.42 0 0 Z " fill="#F7F9FA" transform="translate(30,90)"/>
<path d="M0 0 C4.875 0.875 4.875 0.875 6 2 C6.14115161 4.67058851 6.04247107 7.32432238 6 10 C3.69 10 1.38 10 -1 10 C-1.33 8.68 -1.66 7.36 -2 6 C-1.34 6 -0.68 6 0 6 C0 6.66 0 7.32 0 8 C0.99 7.67 1.98 7.34 3 7 C3.33 6.34 3.66 5.68 4 5 C3.34 4.67 2.68 4.34 2 4 C2.33 3.34 2.66 2.68 3 2 C1.35 2.33 -0.3 2.66 -2 3 C-1.34 2.01 -0.68 1.02 0 0 Z " fill="#F4F6F8" transform="translate(116,93)"/>
<path d="M0 0 C0.66 1.32 1.32 2.64 2 4 C2.34160156 4.67160156 2.68320312 5.34320313 3.03515625 6.03515625 C3.37417969 6.70417969 3.71320312 7.37320313 4.0625 8.0625 C4.40410156 8.73410156 4.74570312 9.40570313 5.09765625 10.09765625 C6 12 6 12 7 15 C9.00016466 16.20882096 9.00016466 16.20882096 11 17 C10.01 17.66 9.02 18.32 8 19 C5.5 16.6875 5.5 16.6875 3 14 C3 13.01 3 12.02 3 11 C2.34 11 1.68 11 1 11 C0.67 7.37 0.34 3.74 0 0 Z " fill="#7799E0" transform="translate(46,61)"/>
<path d="M0 0 C0.99 0.495 0.99 0.495 2 1 C2 1.66 2 2.32 2 3 C3.65 2.67 5.3 2.34 7 2 C7.33 3.65 7.66 5.3 8 7 C6.68 7.33 5.36 7.66 4 8 C4 7.34 4 6.68 4 6 C3.34 6 2.68 6 2 6 C1.34 7.32 0.68 8.64 0 10 C0 6.7 0 3.4 0 0 Z " fill="#8FA8DA" transform="translate(112,93)"/>
<path d="M0 0 C0.33 0.99 0.66 1.98 1 3 C1.66 2.67 2.32 2.34 3 2 C5.16410684 1.87755711 7.33246523 1.82448858 9.5 1.8125 C11.24796875 1.79123047 11.24796875 1.79123047 13.03125 1.76953125 C16 2 16 2 18 4 C17.05125 3.979375 16.1025 3.95875 15.125 3.9375 C4.97034957 3.83436871 4.97034957 3.83436871 -4 8 C-3.67 7.01 -3.34 6.02 -3 5 C-2.34 5 -1.68 5 -1 5 C-0.67 3.35 -0.34 1.7 0 0 Z " fill="#769AE6" transform="translate(61,39)"/>
<path d="M0 0 C2.97 0 5.94 0 9 0 C9 0.66 9 1.32 9 2 C7.68 2 6.36 2 5 2 C5 5.3 5 8.6 5 12 C4.34 12 3.68 12 3 12 C3 8.7 3 5.4 3 2 C2.01 2 1.02 2 0 2 C0 1.34 0 0.68 0 0 Z " fill="#FBFCFC" transform="translate(81,90)"/>
<path d="M0 0 C0.66 0 1.32 0 2 0 C2.36630156 3.93774177 2.30233203 5.56539771 0 8.875 C-0.66 9.57625 -1.32 10.2775 -2 11 C-2.33 10.01 -2.66 9.02 -3 8 C-3.66 7.67 -4.32 7.34 -5 7 C-4.21654285 5.82780457 -3.42297164 4.66236332 -2.625 3.5 C-2.18414062 2.8503125 -1.74328125 2.200625 -1.2890625 1.53125 C-0.65097656 0.77328125 -0.65097656 0.77328125 0 0 Z " fill="#7397E3" transform="translate(93,66)"/>
<path d="M0 0 C0.74056641 0.05671875 1.48113281 0.1134375 2.24414062 0.171875 C4.05943743 0.31241411 5.87361597 0.46727095 7.6875 0.625 C7.6875 0.955 7.6875 1.285 7.6875 1.625 C6.83027344 1.68558594 5.97304687 1.74617188 5.08984375 1.80859375 C-0.74854873 2.23643536 -6.53307272 2.684163 -12.3125 3.625 C-12.6425 2.965 -12.9725 2.305 -13.3125 1.625 C-8.83671488 -0.68793038 -4.87371482 -0.43554199 0 0 Z " fill="#6280C0" transform="translate(69.3125,61.375)"/>
<path d="M0 0 C0.33 0 0.66 0 1 0 C1 2.31 1 4.62 1 7 C-1.31 7 -3.62 7 -6 7 C-6.33 6.01 -6.66 5.02 -7 4 C-6.030625 3.71125 -5.06125 3.4225 -4.0625 3.125 C-0.89335797 2.35785318 -0.89335797 2.35785318 0 0 Z " fill="#6689D3" transform="translate(98,99)"/>
<path d="M0 0 C2 3.75 2 3.75 2 6 C4.97 6.495 4.97 6.495 8 7 C8 7.66 8 8.32 8 9 C3.82412255 10.39195915 1.86525224 8.82323219 -2 7 C-1.34 4.69 -0.68 2.38 0 0 Z " fill="#6989CE" transform="translate(55,96)"/>
<path d="M0 0 C6.92613636 5.42045455 6.92613636 5.42045455 8 9 C7.67 9.99 7.34 10.98 7 12 C5.82455195 10.56967163 4.65989738 9.13046758 3.5 7.6875 C2.8503125 6.88699219 2.200625 6.08648437 1.53125 5.26171875 C0 3 0 3 0 0 Z " fill="#6D90DA" transform="translate(83,42)"/>
<path d="M0 0 C0.66 0 1.32 0 2 0 C2.66 1.32 3.32 2.64 4 4 C5.65 3.34 7.3 2.68 9 2 C8.67 3.32 8.34 4.64 8 6 C5.6875 6.6875 5.6875 6.6875 3 7 C1.1875 5.8125 1.1875 5.8125 0 4 C0 2.68 0 1.36 0 0 Z " fill="#F5F7F9" transform="translate(56,96)"/>
<path d="M0 0 C0.33 0 0.66 0 1 0 C1 2.31 1 4.62 1 7 C0.34 7 -0.32 7 -1 7 C-1 7.66 -1 8.32 -1 9 C-2.98 9.33 -4.96 9.66 -7 10 C-6.67 8.68 -6.34 7.36 -6 6 C-4.35 6 -2.7 6 -1 6 C-0.67 4.02 -0.34 2.04 0 0 Z " fill="#6484C9" transform="translate(109,96)"/>
<path d="M0 0 C0.33 1.32 0.66 2.64 1 4 C-0.32 4.33 -1.64 4.66 -3 5 C-3 5.66 -3 6.32 -3 7 C-3.99 6.67 -4.98 6.34 -6 6 C-5.8125 4.125 -5.8125 4.125 -5 2 C-2.4375 0.75 -2.4375 0.75 0 0 Z " fill="#7294DE" transform="translate(86,64)"/>
<path d="M0 0 C1.98 0.495 1.98 0.495 4 1 C3.67 2.65 3.34 4.3 3 6 C1.68 5.67 0.36 5.34 -1 5 C-0.67 3.35 -0.34 1.7 0 0 Z " fill="#7E9BD8" transform="translate(49,95)"/>
<path d="M0 0 C1.65 0 3.3 0 5 0 C5 0.66 5 1.32 5 2 C4.01 2.495 4.01 2.495 3 3 C2.59270772 5.32156597 2.25561323 7.6568787 2 10 C1.34 10 0.68 10 0 10 C0 6.7 0 3.4 0 0 Z " fill="#F4F7F8" transform="translate(40,93)"/>
<path d="M0 0 C0.33 0.99 0.66 1.98 1 3 C1.99 3.33 2.98 3.66 4 4 C0.37 4.33 -3.26 4.66 -7 5 C-7 4.01 -7 3.02 -7 2 C-6.21625 2.04125 -5.4325 2.0825 -4.625 2.125 C-1.83883881 2.28728734 -1.83883881 2.28728734 0 0 Z " fill="#6587CE" transform="translate(28,100)"/>
<path d="M0 0 C0.99 0 1.98 0 3 0 C4.125 3.75 4.125 3.75 3 6 C1.68 5.67 0.36 5.34 -1 5 C-0.67 3.35 -0.34 1.7 0 0 Z " fill="#7795D6" transform="translate(92,95)"/>
<path d="M0 0 C0.625 1.875 0.625 1.875 1 4 C-1 6 -1 6 -4 6.25 C-7 6 -7 6 -9 4 C-7.88625 3.896875 -6.7725 3.79375 -5.625 3.6875 C-4.42875 3.460625 -3.2325 3.23375 -2 3 C-1.34 2.01 -0.68 1.02 0 0 Z " fill="#5E7CBE" transform="translate(76,82)"/>
<path d="M0 0 C0.99 0.33 1.98 0.66 3 1 C2.67 2.65 2.34 4.3 2 6 C1.01 5.67 0.02 5.34 -1 5 C-0.67 3.35 -0.34 1.7 0 0 Z " fill="#688BD4" transform="translate(60,95)"/>
<path d="M0 0 C0.99 0.33 1.98 0.66 3 1 C2.67 2.65 2.34 4.3 2 6 C1.01 5.67 0.02 5.34 -1 5 C-0.67 3.35 -0.34 1.7 0 0 Z " fill="#6B8CD2" transform="translate(103,95)"/>
<path d="M0 0 C0.99 0 1.98 0 3 0 C3.33 1.65 3.66 3.3 4 5 C2.02 5.99 2.02 5.99 0 7 C0 4.69 0 2.38 0 0 Z " fill="#698CD4" transform="translate(42,96)"/>
<path d="M0 0 C3.465 1.485 3.465 1.485 7 3 C6.67 3.99 6.34 4.98 6 6 C3.37812506 4.95125002 2.20628639 4.35068687 0.75 1.875 C0.5025 1.25625 0.255 0.6375 0 0 Z " fill="#718FCF" transform="translate(19,95)"/>
<path d="M0 0 C2.38564077 0.57584432 4.66682784 1.22227595 7 2 C6.67 3.32 6.34 4.64 6 6 C3.96166576 4.7260411 1.96147874 3.38938077 0 2 C0 1.34 0 0.68 0 0 Z " fill="#6C8DD4" transform="translate(22,92)"/>
<path d="M0 0 C1.98 0 3.96 0 6 0 C6.33 0.66 6.66 1.32 7 2 C5.824375 2.433125 5.824375 2.433125 4.625 2.875 C1.90328368 3.84912254 1.90328368 3.84912254 0 6 C0 4.02 0 2.04 0 0 Z " fill="#F7F9F9" transform="translate(100,93)"/>
<path d="M0 0 C0.33 0 0.66 0 1 0 C1 2.97 1 5.94 1 9 C1.99 9.33 2.98 9.66 4 10 C2.35 10.33 0.7 10.66 -1 11 C-1.33 10.34 -1.66 9.68 -2 9 C-1.34 9 -0.68 9 0 9 C0 6.03 0 3.06 0 0 Z " fill="#5E84D4" transform="translate(38,94)"/>
<path d="M0 0 C0.99 0.33 1.98 0.66 3 1 C3.66 0.67 4.32 0.34 5 0 C4.67 1.65 4.34 3.3 4 5 C3.01 5 2.02 5 1 5 C0.67 3.35 0.34 1.7 0 0 Z " fill="#7395DF" transform="translate(90,79)"/>
<path d="M0 0 C0.66 0 1.32 0 2 0 C2 1.65 2 3.3 2 5 C1.34 5 0.68 5 0 5 C-0.33 5.99 -0.66 6.98 -1 8 C-1.04241723 5.66705225 -1.04092937 3.33297433 -1 1 C-0.67 0.67 -0.34 0.34 0 0 Z " fill="#6789CF" transform="translate(33,95)"/>
<path d="M0 0 C1.485 0.99 1.485 0.99 3 2 C3.1875 5.125 3.1875 5.125 3 8 C2.01 7.34 1.02 6.68 0 6 C-0.1875 2.875 -0.1875 2.875 0 0 Z " fill="#ECF1F6" transform="translate(95,93)"/>
</svg>
